<svg id="shield-x" xmlns="http://www.w3.org/2000/svg" width="64" height="64" viewBox="0 0 64 64">
  <path id="Path_3298" data-name="Path 3298" d="M0,0H64V64H0Z" fill="none"/>
  <path id="Artboard_1" data-name="Artboard 1" d="M43.818,19.61a20.865,20.865,0,0,0-1.562-8.443,9.28,9.28,0,0,0-6.063-5.535,7.819,7.819,0,0,0-4.464,0,5.832,5.832,0,0,0-3.055,2.378c-.621.891-1.2,1.811-1.808,2.711-1.7,2.5-4.116,2.012-5.72.821a8.034,8.034,0,0,1-2.271-2.786A20.361,20.361,0,0,1,16.863,2.72a1.421,1.421,0,0,1,.208-1.076,1.436,1.436,0,0,1,1.968-.392,1.408,1.408,0,0,1,.6.911A19.493,19.493,0,0,0,21,6.608a11.762,11.762,0,0,0,.964,1.7,4.2,4.2,0,0,0,.927.938c.76.558,1.2.469,1.729-.3.686-.994,1.312-2.036,2.04-3a8.413,8.413,0,0,1,7.389-3.485c4.909.169,8.344,2.664,10.541,7A20.07,20.07,0,0,1,46.53,17a28.464,28.464,0,0,1-.858,10.272c-2.318,7.95-7.417,13.04-15.395,14.958a15.792,15.792,0,0,1-10.393-.938,11.776,11.776,0,0,1-3.157-2.256c-1.391-1.295-2.248-.553-2.869.5a9.88,9.88,0,0,0-1.173,4.043c-.065.619-.079,1.243-.1,1.876a1.483,1.483,0,0,1-.406,1.064,1.447,1.447,0,0,1-1.035.451,1.425,1.425,0,0,1-1.018-.471,1.46,1.46,0,0,1-.373-1.068A15.409,15.409,0,0,1,11.04,38.87,8.129,8.129,0,0,1,12.431,36.8a4.008,4.008,0,0,1,5.382-.5,12.675,12.675,0,0,1,1.293,1.06,9.8,9.8,0,0,0,5.739,2.35c7.18.854,15.483-3.865,18.051-13.054A26.559,26.559,0,0,0,43.818,19.61Zm-30.9,10.432a10.266,10.266,0,0,0-6.851,5.8,20.915,20.915,0,0,0-1.993,9.78,1.288,1.288,0,0,0,.134.539,1.387,1.387,0,0,0,1.539.832,1.4,1.4,0,0,0,1.132-1.344c.093-1.177.111-2.345.264-3.537a13.953,13.953,0,0,1,2.132-6.159A6.907,6.907,0,0,1,16.3,32.7a18.577,18.577,0,0,1,2.93.8,8.447,8.447,0,0,0,5.039.258c3.708-1.21,5.822-5.314,5.247-9.189A9.459,9.459,0,0,0,23.468,17.1a14.594,14.594,0,0,1-7.644-7.228,18.842,18.842,0,0,1-1.84-7.453,1.4,1.4,0,0,0-1.168-1.37,1.36,1.36,0,0,0-1.511.816,2.3,2.3,0,0,0-.125.91,21.219,21.219,0,0,0,2.248,8.691,16.472,16.472,0,0,0,8.46,8.044A8.854,8.854,0,0,1,25.4,22.068a5.737,5.737,0,0,1,.579,6.675,4.039,4.039,0,0,1-3.152,2.4,6.324,6.324,0,0,1-2.851-.436,15.4,15.4,0,0,0-4.636-1.037C14.531,29.793,13.71,29.85,12.922,30.042Z" transform="translate(6.628 7.984)" fill="#354a5c" stroke="#354a5c" stroke-width="1.5"/>
</svg>
