<svg xmlns="http://www.w3.org/2000/svg" width="47.8" height="41.8" viewBox="0 0 47.8 41.8">
  <g id="Group_1" data-name="Group 1" transform="translate(-997 -684)">
    <g id="_1814104_favorite_heart_like_love_icon" data-name="1814104_favorite_heart_like_love_icon" transform="translate(988.9 672.9)">
      <g id="Icon-Heart" transform="translate(178 230)">
        <path id="Fill-18" d="M-146-177.1l-.8-.7c-18.2-14.8-23.1-20-23.1-28.5a12.611,12.611,0,0,1,12.6-12.6c5.8,0,9.1,3.3,11.3,5.8,2.2-2.5,5.5-5.8,11.3-5.8a12.611,12.611,0,0,1,12.6,12.6c0,8.5-4.9,13.7-23.1,28.5l-.8.7Zm-11.3-39.2a10.029,10.029,0,0,0-10,10c0,7.3,4.6,12.1,21.3,25.8,16.7-13.7,21.3-18.5,21.3-25.8a10.029,10.029,0,0,0-10-10c-5,0-7.7,3-9.8,5.4l-1.5,1.7-1.5-1.7c-2.1-2.4-4.8-5.4-9.8-5.4Z" fill="#fff"/>
      </g>
    </g>
  </g>
</svg>
