<svg id="shield-check" xmlns="http://www.w3.org/2000/svg" width="64" height="64" viewBox="0 0 64 64">
  <path id="Path_3291" data-name="Path 3291" d="M0,0H64V64H0Z" fill="none"/>
  <path id="Artboard_1" data-name="Artboard 1" d="M32.061,58.04a2.1,2.1,0,0,1-1.24-2.247c.052-1.554,0-3.12,0-4.657a.582.582,0,0,0-.4-.582,10.014,10.014,0,0,1,8.057-18.337,1.38,1.38,0,0,0,1.426,0A9.99,9.99,0,1,1,47.929,50.5a.582.582,0,0,0-.4.582c0,1.56-.035,3.126,0,4.657a2.113,2.113,0,0,1-1.2,2.3Zm9.972-23.1c.122.186.2.32.3.454A9.978,9.978,0,0,1,44.192,40.9a1.691,1.691,0,0,1-1.618,1.985c-1.036.023-1.671-.71-1.717-1.851a6.683,6.683,0,1,0-8.645,6.531c1.746.512,1.968.827,1.968,2.631v4.471H44.2V49.681a1.746,1.746,0,0,1,1.4-1.933c.175-.058.349-.116.53-.163a6.345,6.345,0,0,0,3.237-2.16,6.689,6.689,0,0,0,.338-7.987,6.619,6.619,0,0,0-7.672-2.5ZM39.238.992H45.6a1.718,1.718,0,0,1,1.956,1.944v4.9a.646.646,0,0,0,.466.722,10.007,10.007,0,0,1-2.136,19.129,9.518,9.518,0,0,1-6.153-.961,1.065,1.065,0,0,0-1.077,0,9.567,9.567,0,0,1-10.036-.582A9.471,9.471,0,0,1,24.2,17.158a9.692,9.692,0,0,1,6.1-8.551c.4-.18.582-.349.547-.8v-4.9A1.706,1.706,0,0,1,32.724.992ZM36.327,24.074c-.116-.163-.192-.291-.279-.407A9.9,9.9,0,0,1,34.174,18a1.677,1.677,0,1,1,3.336-.087,6.642,6.642,0,0,0,7.859,6.462,6.293,6.293,0,0,0,5.152-4.471,6.4,6.4,0,0,0-1.426-6.578,6.555,6.555,0,0,0-3.283-1.979,1.823,1.823,0,0,1-1.63-2.154V4.38H34.174V9.037c0,1.508-.3,1.909-1.746,2.328A6.683,6.683,0,0,0,27.6,19.038a6.613,6.613,0,0,0,8.738,5.035Z" transform="translate(-7.192 2.489)" fill="#354a5c" stroke="#354a5c" stroke-width="1.2"/>
</svg>
